PathFileType	4	(X/Y/Z)	OpenSim_Sub08_CSBaseline_Magnet.trc
DataRate	CameraRate	NumFrames	NumMarkers	Units	OrigDataRate	OrigDataStartFrame	OrigNumFrames
100	100	16	8	m	100	1	5461
Frame#	Time	torso_imu_offset_imu	pelvis_imu_offset_imu	tibia_r_imu_offset_imu	femur_r_imu_offset_imu	tibia_l_imu_offset_imu	femur_l_imu_offset_imu	toes_r_imu_offset_imu	toes_l_imu_offset_imu
				X1	Y1	Z1	X2	Y2	Z2	X3	Y3	Z3	X4	Y4	Z4	X5	Y5	Z5	X6	Y6	Z6	X7	Y7	Z7	X8		Y8	Z8	

1	0	-0.94238300	-0.17138700	0.02294900	-0.64648400	0.19799800	-0.66821300	-0.68554700	-0.51611300	-0.06298800	-0.75366200	-0.40649400	-0.13159200	-0.70043900	0.37670900	0.20361300	-0.58227500	0.07910200	0.31933600	-0.61206100	-0.25463900	-0.45581100	-0.72021500	-0.16308600	-0.37475600
2	0.01000000	-0.94018600	-0.17138700	0.02075200	-0.64453100	0.20239300	-0.67065400	-0.68774400	-0.51196300	-0.06543000	-0.74975600	-0.40429700	-0.12719700	-0.69824200	0.38549800	0.20336900	-0.58252000	0.08544900	0.31250000	-0.60571300	-0.25854500	-0.45776400	-0.72045900	-0.15429700	-0.37695300
3	0.02000000	-0.94433600	-0.17334000	0.02319300	-0.64453100	0.20239300	-0.67309600	-0.69189500	-0.51391600	-0.06079100	-0.75170900	-0.40234400	-0.12963900	-0.70043900	0.38110400	0.20361300	-0.58007800	0.08129900	0.31469700	-0.60986300	-0.25659200	-0.45996100	-0.72705100	-0.15649400	-0.37475600
4	0.03000000	-0.94458000	-0.16503900	0.02490200	-0.64648400	0.19799800	-0.67065400	-0.68969700	-0.51391600	-0.07202100	-0.74975600	-0.39819300	-0.12963900	-0.70507800	0.38330100	0.20336900	-0.57788100	0.08349600	0.31250000	-0.60986300	-0.25659200	-0.45776400	-0.72485400	-0.15869100	-0.37475600
5	0.04000000	-0.94238300	-0.16918900	0.02514600	-0.64013700	0.20019500	-0.67309600	-0.68969700	-0.51196300	-0.06543000	-0.74755900	-0.40649400	-0.12695300	-0.70727500	0.38769500	0.20556600	-0.58227500	0.08325200	0.31909200	-0.60546900	-0.26269500	-0.45556600	-0.72021500	-0.15869100	-0.37011700
6	0.05000000	-0.94018600	-0.16918900	0.02294900	-0.64013700	0.19824200	-0.67749000	-0.69604500	-0.51196300	-0.06323200	-0.74951200	-0.40844700	-0.12695300	-0.70727500	0.38330100	0.19897500	-0.58227500	0.08105500	0.31933600	-0.60766600	-0.25659200	-0.45776400	-0.72485400	-0.15649400	-0.37255900
7	0.06000000	-0.94238300	-0.16918900	0.02954100	-0.64013700	0.19604500	-0.67041000	-0.69189500	-0.51391600	-0.06518600	-0.74975600	-0.40014600	-0.12963900	-0.69824200	0.38110400	0.20800800	-0.57788100	0.07910200	0.31689500	-0.61181600	-0.26074200	-0.45361300	-0.72021500	-0.15869100	-0.37255900
8	0.07000000	-0.94238300	-0.17138700	0.01855500	-0.64892600	0.20214800	-0.66845700	-0.68774400	-0.51391600	-0.06298800	-0.74536100	-0.40429700	-0.12939500	-0.70263700	0.37890600	0.20361300	-0.57592800	0.08569300	0.31250000	-0.60791000	-0.25463900	-0.45800800	-0.72705100	-0.15649400	-0.37255900
9	0.08000000	-0.94238300	-0.17138700	0.02954100	-0.64624000	0.19189500	-0.67260700	-0.68969700	-0.51196300	-0.06543000	-0.74975600	-0.40014600	-0.12719700	-0.70043900	0.37890600	0.21020500	-0.58252000	0.08764600	0.31250000	-0.60986300	-0.25659200	-0.46411100	-0.72265600	-0.15429700	-0.36792000
10	0.09000000	-0.94018600	-0.16699200	0.02734400	-0.64233400	0.20459000	-0.68017600	-0.69384800	-0.51391600	-0.06298800	-0.74975600	-0.40234400	-0.13183600	-0.70947300	0.38110400	0.19921900	-0.58447300	0.08105500	0.31469700	-0.60766600	-0.26269500	-0.45776400	-0.72265600	-0.15429700	-0.37255900
11	0.10000000	-0.94043000	-0.16503900	0.02490200	-0.64257800	0.20654300	-0.67309600	-0.68774400	-0.51391600	-0.06079100	-0.74755900	-0.40429700	-0.12719700	-0.70288100	0.38549800	0.20556600	-0.58667000	0.08105500	0.31469700	-0.60986300	-0.26074200	-0.45776400	-0.72485400	-0.15649400	-0.37475600
12	0.11000000	-0.94458000	-0.16699200	0.02075200	-0.64453100	0.20019500	-0.67309600	-0.68774400	-0.51196300	-0.06762700	-0.74975600	-0.40429700	-0.13403300	-0.70263700	0.38330100	0.20556600	-0.58227500	0.07910200	0.31689500	-0.60766600	-0.26074200	-0.45581100	-0.72290000	-0.15210000	-0.36572300
13	0.12000000	-0.94018600	-0.16699200	0.02734400	-0.64453100	0.20019500	-0.67065400	-0.68750000	-0.51611300	-0.06518600	-0.74975600	-0.40429700	-0.12939500	-0.70263700	0.37890600	0.20361300	-0.57788100	0.07910200	0.31469700	-0.60766600	-0.26269500	-0.45996100	-0.72265600	-0.15869100	-0.37255900
14	0.13000000	-0.94653300	-0.16918900	0.02294900	-0.64868200	0.20019500	-0.67529300	-0.69189500	-0.51391600	-0.06298800	-0.75170900	-0.40649400	-0.12475600	-0.70263700	0.38330100	0.21020500	-0.58252000	0.08544900	0.31689500	-0.60766600	-0.25854500	-0.45776400	-0.72705100	-0.15649400	-0.37011700
15	0.14000000	-0.94018600	-0.16699200	0.02294900	-0.64428700	0.19604500	-0.67749000	-0.68945300	-0.52026400	-0.06274400	-0.74755900	-0.40234400	-0.12719700	-0.70043900	0.37890600	0.20141600	-0.58227500	0.08325200	0.31689500	-0.60766600	-0.25659200	-0.45996100	-0.72485400	-0.15429700	-0.37915000
16	0.15000000	-0.94482400	-0.16284200	0.02490200	-0.64672900	0.20019500	-0.66601600	-0.69580100	-0.51611300	-0.06738300	-0.75390600	-0.40454100	-0.12939500	-0.70483400	0.38110400	0.20800800	-0.57788100	0.08349600	0.31689500	-0.60986300	-0.25463900	-0.45996100	-0.72705100	-0.16088900	-0.36792000
